<?xml version="1.0" encoding="UTF-8"?>
<svg version="1.1" viewBox="0 0 1024 1024" xmlns="http://www.w3.org/2000/svg">
 <desc>lock_outline icon - Licensed under Apache License v2.0 (http://www.apache.org/licenses/LICENSE-2.0) - Created with Iconfu.com - Derivative work of Material icons (Copyright Google Inc.)</desc>
 <path d="m243.2 467.2 246.4-403.2 246.4 403.2zm492.8 492.8q-84 0-142.8-58.8t-58.8-142.8 58.8-142.8 142.8-58.8 142.8 58.8 58.8 142.8-58.8 142.8-142.8 58.8zm-649.6-22.4v-358.4h358.4v358.4zm649.6-67.2q47.04 0 79.52-32.48t32.48-79.52-32.48-79.52-79.52-32.48-79.52 32.48-32.48 79.52 32.48 79.52 79.52 32.48zm-560-22.4h179.2v-179.2h-179.2zm226.24-470.4h174.72l-87.36-141.12z" fill="#03b8e5" fill-opacity=".87843" stroke-width=".025"/>
</svg>
