<?xml version="1.0" encoding="UTF-8"?>
<svg version="1.1" viewBox="0 0 1024 1024" xmlns="http://www.w3.org/2000/svg">
 <desc>lock_outline icon - Licensed under Apache License v2.0 (http://www.apache.org/licenses/LICENSE-2.0) - Created with Iconfu.com - Derivative work of Material icons (Copyright Google Inc.)</desc>
 <path d="m467.2 844.64v-306.88l-268.8-155.68v306.88zm89.6 0 268.8-155.68v-306.88l-268.8 155.68zm-44.8-384.16 265.44-153.44-265.44-153.44-265.44 153.44zm-358.4 306.88q-21.28-12.32-33.04-32.48t-11.76-44.8v-356.16q0-24.64 11.76-44.8t33.04-32.48l313.6-180.32q21.28-12.32 44.8-12.32t44.8 12.32l313.6 180.32q21.28 12.32 33.04 32.48t11.76 44.8v356.16q0 24.64-11.76 44.8t-33.04 32.48l-313.6 180.32q-21.28 12.32-44.8 12.32t-44.8-12.32z" fill="#03b8e5" stroke-width=".025"/>
</svg>
